<svg xmlns="http://www.w3.org/2000/svg" width="16" height="16" viewBox="0 0 16 16" version="1.1">
  <g fill="none" fill-rule="evenodd">
    <polygon fill="#40b6e0" fill-opacity="0.7" points="16,9 1,9 1,16 16,16 "/>
    <polygon fill="#9aa7b0" fill-opacity="0.8" points="7,1 3,5 7,5 "/>
    <polygon fill="#9aa7b0" fill-opacity="0.8" points="8,1 8,6 3,6 3,8 13,8 13,1 "/>
    <path fill="#231f20" fill-opacity="0.7" d="M 12.993893,14.999999 C 11.489314,14.999999 10.5,13.922651 10.5,12.513811 v -0.01381 c 0,-1.353591 1.030535,-2.5 2.480153,-2.5 0.838167,0 1.353435,0.234807 1.848091,0.656077 l -0.535877,0.642266 c -0.370992,-0.310776 -0.735115,-0.511052 -1.346565,-0.511052 -0.886259,0 -1.559542,0.773481 -1.559542,1.698895 v 0.01381 c 0,0.994475 0.652672,1.726519 1.635114,1.726519 0.453436,0 0.865649,-0.145027 1.161069,-0.366022 v -0.89779 H 12.952671 V 12.216848 H 15 v 2.030387 c -0.474048,0.407458 -1.154199,0.752762 -2.006108,0.752762 z"/>
    <path fill="#231f20" fill-opacity="0.7" d="m 7.9860001,14 1.5139994,0 v 1 H 8.2499993 6.9999995 V 9.9999996 H 8.2499993 9.4999995 V 11 H 7.9861418 v 1 h 1.5138577 v 1 H 7.9860001 Z"/>
    <path fill="#231f20" fill-opacity="0.7" d="m 3.9000005,12.5 c 0.664,0 1.1,-0.115601 1.1,-0.75 0,-0.6344 -0.443,-0.75 -1.1,-0.75 h -0.9 v 1.5 z m -1.9,-2.5000004 h 1.971 c 1.171,0 2.0290003,0.6420004 2.0290003,1.6500004 0,1.635827 -1.0290003,1.85 -2.1280003,1.85 h -0.872 V 15 h -1 z"/>
  </g>
</svg>
